<?xml version="1.0" encoding="utf-8"?>
<!-- Generator: Adobe Illustrator 26.0.2, SVG Export Plug-In . SVG Version: 6.00 Build 0)  -->
<svg version="1.1" id="Layer_1" xmlns="http://www.w3.org/2000/svg" xmlns:xlink="http://www.w3.org/1999/xlink" x="0px" y="0px"
	 viewBox="0 0 395 100" style="enable-background:new 0 0 395 100;" xml:space="preserve">
<style type="text/css">
	.st0{fill:#FFFFFF;}
</style>
<g>
	<g>
		<path class="st0" d="M266.99,45.25c-0.66-0.33-1.62-0.9-2.83-1.77c-0.9-0.66-1.51-1.01-1.86-1.1c-0.09,0.02-0.31,0.18-0.7,0.53
			c-0.9,0.81-2.45,1.88-4.73,3c-0.57,0.28-1.01,0.09-1.31-0.42c-0.22-0.57-0.02-1.01,0.55-1.25c2.02-0.9,3.61-1.93,4.8-3.11
			c0.66-0.88,1.55-0.85,2.63-0.11c0.18,0.13,0.48,0.31,0.92,0.61c1.16,0.81,2.28,1.53,3.29,2.06c0.46,0.24,0.79,0.7,0.55,1.23
			C268,45.43,267.54,45.51,266.99,45.25z M266.77,52.39c-0.2,0.22-0.61,0.31-1.1,0.31H259c-0.28,2.39-0.79,4.34-1.53,5.74
			c-0.26,0.48-0.74,0.88-1.31,0.61c-0.57-0.26-0.68-0.85-0.42-1.38c0.81-1.6,1.29-3.26,1.49-4.93v-5.19c0-0.94,0.44-1.31,1.4-1.31
			h7.14c0.88,0,1.29,0.48,1.29,1.45v3.57C267.06,51.78,266.99,52.15,266.77,52.39z M265.22,48.19c0-0.31-0.13-0.44-0.55-0.44h-5.08
			c-0.5,0-0.61,0.11-0.61,0.39v0.61h6.24V48.19z M265.22,50.14h-6.24v1.05h5.74c0.42,0,0.53-0.15,0.5-0.44V50.14z M266.03,59.23
			h-5.54c-0.94,0-1.47-0.59-1.47-1.56v-2.76c0-0.81,0.48-1.25,1.31-1.25h5.94c0.68,0,1.1,0.11,1.18,0.81
			c0.02,0.18,0.04,0.44,0.04,0.83v2.5C267.5,58.77,267.04,59.23,266.03,59.23z M264.76,45.43h-4.03c-0.53,0-0.77-0.28-0.79-0.77
			c0.07-0.46,0.37-0.74,0.88-0.74h3.94c0.53,0,0.83,0.26,0.88,0.74C265.59,45.14,265.28,45.43,264.76,45.43z M265.83,55.85
			c0-0.5-0.13-0.66-0.48-0.61h-3.97c-0.55,0-0.7,0.18-0.7,0.53v1.16c0,0.46,0.2,0.68,0.53,0.68h4.01c0.26,0,0.42,0,0.48-0.09
			c0.07-0.07,0.13-0.24,0.13-0.55V55.85z M269.69,54.69c-0.59-0.04-0.96-0.42-0.96-1.01v-10.8c0-0.7,0.33-1.07,0.94-1.14
			c0.61,0.04,0.96,0.42,0.96,1.1v10.84C270.63,54.28,270.28,54.65,269.69,54.69z M269.6,58.7c-0.59-0.26-0.85-0.7-0.77-1.29
			c0.22-0.59,0.61-0.83,1.21-0.55c1.91,0.92,2.43,0.81,2.43,0.07V41.24c0-0.68,0.35-1.07,0.94-1.14c0.61,0.04,0.94,0.44,0.94,1.1
			v16.01C274.35,59.62,272.64,60.06,269.6,58.7z"/>
		<path class="st0" d="M282.65,41.79c-0.42,1.16-0.81,2.3-1.25,3.46v13.32c0,0.61-0.37,0.96-0.96,0.99
			c-0.57-0.07-0.94-0.44-0.94-1.03V48.47c-0.15,0.26-0.33,0.55-0.57,0.85c-0.2,0.24-0.42,0.37-0.66,0.39
			c-0.59,0.07-0.94-0.53-0.94-1.05c0-0.28,0.09-0.57,0.31-0.79c1.34-1.47,2.41-3.7,3.22-6.73c0.09-0.33,0.24-0.61,0.48-0.77
			c0.53-0.35,1.16-0.13,1.36,0.46C282.78,41.13,282.76,41.46,282.65,41.79z M297.32,59.43c-3.59-0.2-6.05-0.59-7.38-1.1
			c-1.51,0.48-3.83,0.88-6.88,1.14c-0.48,0.04-0.74-0.22-0.81-0.7c0.02-0.48,0.26-0.85,0.74-0.88c1.84-0.11,3.44-0.24,4.82-0.48
			c-0.61-0.31-1.38-0.92-2.28-1.77c-0.68,0.37-1.47,0.72-2.37,1.01c-0.5,0.15-0.85,0.02-1.05-0.42c-0.11-0.5,0.04-0.9,0.55-1.03
			c2.39-0.59,3.9-1.4,4.53-2.39c-0.37-0.33-0.59-0.83-0.59-1.56v-1.16h-2.37c-0.53,0-0.74,0.22-0.74,0.85v0.35
			c0,0.46-0.31,0.7-0.77,0.74c-0.48-0.02-0.79-0.24-0.79-0.7v-1.31c0-0.85,0.42-1.36,1.21-1.36h0.79v-4.32c0-0.53,0.07-0.9,0.26-1.1
			c0.18-0.22,0.53-0.33,0.99-0.33h3.22l0.35-0.72h-5.13c-0.44,0-0.66-0.28-0.68-0.74c0.04-0.44,0.28-0.72,0.72-0.72h12.97
			c0.42,0,0.63,0.31,0.66,0.74c-0.02,0.44-0.24,0.72-0.66,0.72h-6l-0.24,0.72h3.48c0.88,0,1.29,0.68,1.29,1.86v3.88h1.05
			c0.75,0,1.29,0.13,1.53,0.53c0.24,0.39,0.28,1.03,0.09,1.91c-0.11,0.53-0.42,0.77-0.9,0.72c-0.5-0.11-0.74-0.44-0.7-0.96
			c0.13-0.64-0.04-0.77-0.53-0.77h-4.99c0.24,0.26,0.39,0.42,0.57,0.72c0.2,0.33,0.13,0.66-0.11,0.83c-0.31,0.22-0.68,0.2-0.9-0.13
			c-0.2-0.28-0.35-0.44-0.59-0.7c-0.24-0.26-0.26-0.5-0.09-0.72h-1.51v1.07c0,0.48,0.24,0.7,0.99,0.7h2.04
			c0.74,0,1.05-0.24,1.07-0.66c0.02-0.44,0.26-0.7,0.72-0.61s0.7,0.37,0.7,0.81c0.04,1.64-1.18,1.86-2.54,1.86h-2.39
			c-0.11,0.28-0.53,0.61-0.81,0.77h6.29c0.53,0,0.88,0.15,1.07,0.46c0.2,0.37,0.15,0.77-0.18,1.1c-0.5,0.5-1.58,1.1-3.13,1.77
			c1.38,0.22,3.22,0.35,5.46,0.37c0.55,0,0.83,0.35,0.88,0.9C298.22,59.16,297.89,59.45,297.32,59.43z M284.03,53.77
			c-0.39,0.31-0.79,0.28-1.12-0.04c-0.26-0.37-0.22-0.79,0.13-1.12c0.5-0.37,0.92-0.94,1.36-1.66c0.24-0.39,0.61-0.44,1.03-0.2
			c0.33,0.26,0.44,0.64,0.22,1.03C285.23,52.59,284.68,53.27,284.03,53.77z M293.64,45.95h-8.19v0.79h8.19V45.95z M293.6,44.46
			c0.02-0.2-0.04-0.31-0.53-0.31h-6.94c-0.53,0-0.66,0.15-0.63,0.35v0.33h8.1V44.46z M293.64,47.86h-8.15v0.81h8.15V47.86z
			 M287.2,55.28c0.46,0.48,1.36,0.96,2.7,1.4c0.39-0.13,2.72-0.96,3.13-1.38L287.2,55.28z M296.62,53.86
			c-0.37,0.28-0.79,0.11-1.12-0.33c-0.26-0.35-1.1-1.4-1.34-1.69c-0.33-0.39-0.35-0.9,0.07-1.18c0.42-0.26,0.83-0.13,1.18,0.26
			c0.42,0.46,0.88,1.05,1.31,1.73C297.02,53.12,297.02,53.55,296.62,53.86z"/>
		<path class="st0" d="M256.61,80.51c-0.55,0.33-1.05,0.28-1.4-0.18c-0.37-0.48-0.2-1.18,0.31-1.47c0.4-0.22,0.92-0.53,1.53-0.94
			v-7.25h-1.34c-0.53,0-0.77-0.37-0.81-0.92c0.04-0.55,0.29-0.92,0.81-0.92h1.34v-4.71c0-0.46,0.35-0.72,0.88-0.72
			s0.88,0.26,0.88,0.72v4.71h1.18c0.5,0,0.77,0.37,0.81,0.92c-0.04,0.55-0.31,0.92-0.81,0.92h-1.18v5.96
			c0.24-0.2,0.48-0.42,0.79-0.72c0.18-0.18,0.42-0.33,0.66-0.35c0.77-0.07,1.4,0.81,0.79,1.51
			C260.03,78.23,258.54,79.37,256.61,80.51z M272.32,72.69h-9.46c-1.4,0-1.8-0.57-1.8-1.91v-3.51c0-1.05,0.59-1.62,1.78-1.62h1.14
			c-0.33-0.46-0.72-1.05-0.9-1.27c-0.35-0.42-0.33-0.88,0.09-1.18c0.42-0.33,0.94-0.26,1.29,0.15c0.48,0.57,0.99,1.45,1.36,2.1
			c0.02,0.04,0.04,0.11,0.04,0.2h3.73c0.02-0.04,0.04-0.09,0.07-0.13c0.37-0.55,1.01-1.53,1.31-2.08c0.24-0.44,0.74-0.5,1.18-0.22
			c0.42,0.28,0.59,0.64,0.31,1.12c-0.24,0.44-0.55,0.9-0.85,1.31h0.72c1.07,0,1.77,0.57,1.77,1.53v3.59
			C274.09,71.97,273.7,72.69,272.32,72.69z M271.15,82.07h-7.54c-1.23,0-1.89-0.53-1.89-1.88v-4.25c0-1.16,0.44-1.95,2.13-1.95h7.25
			c1.45,0,2.13,0.46,2.13,1.95v3.99C273.24,81.45,272.8,82.07,271.15,82.07z M266.73,67.34h-3.61c-0.31,0-0.44,0.13-0.44,0.44v2.74
			c0,0.35,0.13,0.5,0.53,0.5h3.53V67.34z M265.76,70.67c-0.37,0.24-0.72,0.33-1.03-0.07c-0.44-0.55-0.9-1.4-1.18-1.73
			c-0.31-0.35-0.24-0.68,0.04-1.05c0.33-0.33,0.88-0.33,1.16,0.02c0.55,0.66,0.96,1.42,1.25,1.88
			C266.27,70.17,265.96,70.54,265.76,70.67z M271.53,76.26c0-0.46-0.22-0.64-0.61-0.64h-6.88c-0.42,0-0.64,0.2-0.64,0.64v0.94h8.13
			V76.26z M271.53,78.85h-8.13v0.94c0,0.44,0.24,0.66,0.66,0.66h6.9c0.39,0,0.57-0.22,0.57-0.66V78.85z M272.45,67.89
			c0-0.37-0.15-0.55-0.5-0.55h-3.55v3.68h3.59c0.31,0,0.46-0.18,0.46-0.5V67.89z M270.39,70.52c-0.37,0.35-0.83,0.37-1.21,0.09
			c-0.37-0.37-0.33-0.68,0-1.05c0.11-0.13,0.61-0.88,1.16-1.69c0.26-0.37,0.74-0.46,1.16-0.2c0.33,0.31,0.46,0.66,0.18,1.05
			C271.31,69.23,270.83,70.1,270.39,70.52z"/>
		<path class="st0" d="M281.88,67.96v14.06c0,0.59-0.35,0.94-0.94,0.96c-0.57-0.07-0.92-0.39-0.92-1.01V71.4
			c-0.18,0.22-0.42,0.48-0.72,0.83c-0.2,0.22-0.39,0.37-0.68,0.42c-0.28,0.04-0.57-0.07-0.79-0.24c-0.44-0.44-0.5-0.92-0.07-1.42
			c1.69-1.97,2.76-4.27,3.26-6.9c0.13-0.66,0.55-0.99,1.18-0.92c0.59,0.18,0.83,0.61,0.75,1.27
			C282.78,65.64,282.4,66.82,281.88,67.96z M297.28,82.66h-14.3c-0.59,0-0.99-0.31-0.99-0.88s0.39-0.92,0.99-0.92h1.42V69.21
			c0-1.1,0.46-1.42,1.51-1.42h3.18v-1.14h-5.21c-0.55,0-0.92-0.35-0.92-0.9c0-0.55,0.37-0.9,0.92-0.9h5.21V63.8
			c0-0.53,0.35-0.81,0.92-0.81c0.57,0,0.92,0.28,0.92,0.81v1.05h5.39c0.53,0,0.83,0.33,0.85,0.88c0.02,0.55-0.28,0.92-0.83,0.92
			h-5.41v1.14h3.04c0.64,0,1.1,0.11,1.36,0.33c0.26,0.22,0.39,0.61,0.39,1.14v11.61h1.55c0.53,0,0.83,0.35,0.83,0.9
			C298.11,82.31,297.8,82.66,297.28,82.66z M293.86,69.97c0-0.24-0.07-0.42-0.37-0.42h-6.86c-0.31,0-0.37,0.09-0.37,0.42v1.14h7.6
			V69.97z M293.86,72.82h-7.6v1.56h7.6V72.82z M293.86,76.06h-7.6v1.58h7.6V76.06z M293.86,79.31h-7.6v1.56h7.6V79.31z"/>
	</g>
	<g>
		
			<rect x="296.65" y="36.69" transform="matrix(-1.836970e-16 1 -1 -1.836970e-16 350.2095 -267.969)" class="st0" width="24.87" height="8.86"/>
		
			<rect x="330.44" y="61.62" transform="matrix(-1.836970e-16 1 -1 -1.836970e-16 408.9612 -276.8503)" class="st0" width="24.94" height="8.86"/>
		<rect x="309.09" y="49.16" class="st0" width="33.82" height="8.86"/>
		<path class="st0" d="M309.15,24.25h33.75c2.44,0,4.43,1.99,4.43,4.43s-1.99,4.43-4.43,4.43h-33.82L309.15,24.25z"/>
		<path class="st0" d="M342.84,82.99l-33.75,0c-2.44,0-4.43-1.99-4.43-4.43c0-2.44,1.99-4.43,4.43-4.43l33.82,0L342.84,82.99z"/>
		<path class="st0" d="M309.09,24.25L309.09,24.25c-2.44,0-4.43,1.99-4.43,4.43s1.99,4.43,4.43,4.43h4.43v-4.43
			C313.52,26.25,311.53,24.25,309.09,24.25z"/>
		<path class="st0" d="M313.52,53.59v-4.43h-4.43c-2.44,0-4.43,1.99-4.43,4.43s1.99,4.43,4.43,4.43
			C311.53,58.02,313.52,56.02,313.52,53.59z"/>
		<path class="st0" d="M347.34,53.59c0-2.44-1.99-4.43-4.43-4.43c-2.44,0-4.43,1.99-4.43,4.43v4.43h4.43
			C345.34,58.02,347.34,56.02,347.34,53.59z"/>
		<path class="st0" d="M342.91,82.99L342.91,82.99c2.44,0,4.43-1.99,4.43-4.43c0-2.44-1.99-4.43-4.43-4.43h-4.43v4.43
			C338.47,80.99,340.47,82.99,342.91,82.99z"/>
	</g>
	<g>
		
			<rect x="344.07" y="36.69" transform="matrix(-1.836970e-16 1 -1 -1.836970e-16 397.6303 -315.3898)" class="st0" width="24.87" height="8.86"/>
		
			<rect x="377.86" y="61.62" transform="matrix(-1.836970e-16 1 -1 -1.836970e-16 456.382 -324.2711)" class="st0" width="24.94" height="8.86"/>
		<rect x="356.51" y="49.16" class="st0" width="33.82" height="8.86"/>
		<path class="st0" d="M356.57,24.25h33.75c2.44,0,4.43,1.99,4.43,4.43s-1.99,4.43-4.43,4.43h-33.82L356.57,24.25z"/>
		<path class="st0" d="M390.26,82.99l-33.75,0c-2.44,0-4.43-1.99-4.43-4.43c0-2.44,1.99-4.43,4.43-4.43l33.82,0L390.26,82.99z"/>
		<path class="st0" d="M356.51,24.25L356.51,24.25c-2.44,0-4.43,1.99-4.43,4.43s1.99,4.43,4.43,4.43h4.43v-4.43
			C360.94,26.25,358.95,24.25,356.51,24.25z"/>
		<path class="st0" d="M360.94,53.59v-4.43h-4.43c-2.44,0-4.43,1.99-4.43,4.43s1.99,4.43,4.43,4.43
			C358.95,58.02,360.94,56.02,360.94,53.59z"/>
		<path class="st0" d="M394.76,53.59c0-2.44-1.99-4.43-4.43-4.43s-4.43,1.99-4.43,4.43v4.43h4.43
			C392.76,58.02,394.76,56.02,394.76,53.59z"/>
		<path class="st0" d="M390.33,82.99L390.33,82.99c2.44,0,4.43-1.99,4.43-4.43c0-2.44-1.99-4.43-4.43-4.43h-4.43v4.43
			C385.9,80.99,387.89,82.99,390.33,82.99z"/>
	</g>
	<g>
		<path class="st0" d="M243.58,20c-1.79-1.79-4.16-2.77-6.69-2.77c-2.52,0-4.89,0.98-6.68,2.76c-1.78,1.78-2.78,4.14-2.79,6.66v9.51
			h2.48l0-3.08c0.1,0.1,0.19,0.21,0.3,0.31c1.79,1.79,4.16,2.77,6.69,2.77c2.53,0,4.91-0.98,6.69-2.77
			c1.79-1.79,2.77-4.17,2.77-6.69C246.35,24.16,245.37,21.79,243.58,20z M236.89,33.69c-2.16,0-4.1-0.99-5.38-2.53l-0.01,0.01
			l-1.6,1.9l-0.01-6.38c0-3.86,3.14-7,7-7c3.86,0,7,3.14,7,7C243.89,30.55,240.75,33.69,236.89,33.69z"/>
		<path class="st0" d="M236.89,24.94c0.78,0,1.44,0.51,1.67,1.22l1.35-0.23c-0.34-1.35-1.56-2.35-3.02-2.35
			c-1.71,0-3.11,1.39-3.11,3.11c0,1.72,1.39,3.11,3.11,3.11c1.45,0,2.68-1,3.02-2.35l-1.35-0.22c-0.23,0.7-0.89,1.22-1.67,1.22
			c-0.96,0-1.75-0.79-1.75-1.75C235.14,25.73,235.93,24.94,236.89,24.94z"/>
		<path class="st0" d="M240.96,27.63c-0.43,1.85-2.09,3.24-4.06,3.24c-2.3,0-4.17-1.87-4.17-4.17c0-2.3,1.87-4.17,4.17-4.17
			c1.98,0,3.64,1.38,4.06,3.24l1.7-0.28c-0.56-2.67-2.93-4.67-5.76-4.67c-3.25,0-5.89,2.64-5.89,5.89c0,3.25,2.65,5.89,5.89,5.89
			c2.83,0,5.2-2.01,5.77-4.67L240.96,27.63z"/>
	</g>
	<g>
		<g>
			<path class="st0" d="M29.97,25.35l-0.87,5.09c-0.07,0.44-0.58,0.74-1.13,0.67l-4.42-0.58c-0.62-0.08-0.91-0.49-0.83-0.96
				l0.95-5.51c0.08-0.47,0.41-0.79,1.02-0.66l4.44,0.95C29.67,24.46,30.04,24.91,29.97,25.35z"/>
			<path class="st0" d="M21.68,23.66l-0.97,5.66c-0.08,0.49-0.45,0.85-1.13,0.76l-5.89-0.76c-0.78-0.1-1.03-0.57-0.94-1.1l1.06-6.18
				c0.09-0.53,0.49-0.89,1.26-0.72l5.75,1.25C21.5,22.72,21.76,23.18,21.68,23.66z"/>
			<path class="st0" d="M11.52,21.6l-1.09,6.36c-0.09,0.55-0.43,0.93-1.29,0.82L1.4,27.82c-1-0.13-1.24-0.65-1.14-1.25l1.21-7.03
				c0.1-0.6,0.45-1.02,1.44-0.8l7.7,1.66C11.46,20.58,11.61,21.06,11.52,21.6z"/>
		</g>
		<g>
			<path class="st0" d="M33.58,18.49l-2.42,4.45c-0.21,0.38-0.74,0.52-1.19,0.3l-3.48-1.69c-0.51-0.25-0.74-0.79-0.52-1.2l2.62-4.82
				c0.22-0.41,0.81-0.51,1.29-0.22l3.31,2.01C33.61,17.58,33.79,18.11,33.58,18.49z"/>
			<path class="st0" d="M26.87,14.52l-2.69,4.94c-0.23,0.42-0.81,0.59-1.36,0.32l-4.71-2.26c-0.64-0.31-0.65-0.82-0.4-1.29l2.94-5.4
				c0.25-0.46,0.71-0.68,1.32-0.31l4.54,2.73C27.04,13.59,27.1,14.1,26.87,14.52z"/>
			<path class="st0" d="M18.65,9.63l-3.02,5.56c-0.26,0.48-0.77,0.71-1.47,0.37l-6.13-3.02c-0.82-0.4-0.78-0.89-0.5-1.41l3.34-6.14
				c0.29-0.53,0.78-0.78,1.56-0.31l5.82,3.55C18.91,8.64,18.91,9.16,18.65,9.63z"/>
		</g>
		<g>
			<path class="st0" d="M40.34,13.89l-4.92,2.32c-0.42,0.2-0.96,0.01-1.19-0.43l-1.83-3.41c-0.27-0.5-0.11-1.09,0.34-1.3l5.33-2.51
				c0.46-0.22,1.01,0.04,1.22,0.56l1.47,3.58C40.96,13.16,40.77,13.69,40.34,13.89z"/>
			<path class="st0" d="M37.29,6.72L31.83,9.3c-0.47,0.22-1.09-0.04-1.38-0.58l-2.28-4.25c-0.33-0.62-0.19-1.34,0.32-1.58l5.97-2.82
				c0.51-0.24,1.15,0.1,1.42,0.76l1.83,4.46C37.96,5.86,37.76,6.5,37.29,6.72z"/>
		</g>
		<g>
			<path class="st0" d="M29.3,32.96l0.81,4.65c0.07,0.4-0.24,0.81-0.7,0.91l-3.53,0.79c-0.51,0.11-1-0.14-1.08-0.58l-0.87-5.04
				c-0.07-0.43,0.3-0.84,0.82-0.91l3.59-0.45C28.8,32.28,29.23,32.56,29.3,32.96z"/>
			<path class="st0" d="M22.08,33.95l0.9,5.17c0.08,0.44-0.14,0.87-0.7,1l-4.85,1.05c-0.65,0.14-0.98-0.17-1.07-0.66l-0.98-5.65
				c-0.08-0.48,0.08-0.88,0.73-0.97l4.99-0.64C21.68,33.19,22,33.51,22.08,33.95z"/>
			<path class="st0" d="M13.21,35.18L14.22,41c0.09,0.5-0.12,0.95-0.83,1.1l-6.44,1.44c-0.83,0.19-1.14-0.42-1.23-0.97l-1.05-6.03
				c-0.1-0.55,0.11-1.17,0.96-1.27l6.44-0.85C12.79,34.32,13.13,34.68,13.21,35.18z"/>
		</g>
		<g>
			<path class="st0" d="M30.97,39.81l2.17,3.82c0.19,0.33,0.06,0.77-0.28,0.99l-2.63,1.68c-0.38,0.24-0.86,0.16-1.07-0.2l-2.35-4.13
				c-0.2-0.35-0.03-0.81,0.38-1.02l2.78-1.4C30.35,39.37,30.79,39.49,30.97,39.81z"/>
			<path class="st0" d="M25.4,42.71l2.41,4.24c0.21,0.36,0.04,0.88-0.38,1.15l-3.39,2.15c-0.48,0.31-1.05,0.02-1.28-0.37l-2.45-4.35
				c-0.23-0.4-0.21-0.99,0.3-1.24l3.61-1.83C24.67,42.23,25.2,42.35,25.4,42.71z"/>
			<path class="st0" d="M18.44,46.33l2.71,4.77c0.23,0.41,0.12,0.9-0.41,1.24l-4.61,2.96c-0.62,0.4-1.14,0.04-1.4-0.41l-2.8-4.95
				c-0.26-0.45-0.37-1.05,0.28-1.38l4.98-2.54C17.76,45.74,18.21,45.92,18.44,46.33z"/>
		</g>
	</g>
	<g>
		<path class="st0" d="M218.69,62.13c-2.11,4.31-6.12,7.6-11.34,7.6c-6.06,0-10.98-4.92-10.98-10.98s4.92-10.98,10.98-10.98
			c5.22,0,9.1,3.4,11.39,7.63l8.64-8.44c-4.04-6.86-11.5-11.46-20.04-11.46c-12.84,0-23.25,10.41-23.25,23.25S194.5,82,207.35,82
			c8.54,0,15.99-4.6,20.04-11.46L218.69,62.13z"/>
		<g>
			<polygon class="st0" points="101.92,17.21 89.65,17.21 89.65,81.32 101.92,81.32 101.92,58.75 			"/>
			<polygon class="st0" points="115.47,58.71 133.42,36.16 118.35,36.16 101.92,58.75 118.52,81.35 133.42,81.35 			"/>
		</g>
		<path class="st0" d="M80.75,40.9c-3.18-3.66-7.67-5.51-12.87-5.51c-2.44,0-7.39,1.15-10.37,3.43v-21.6H45.23v64.14H57.5l0-42.52
			l3.75,8.98c0.07-0.04,2.02-1.11,4.29-1.11c2.53,0,4.38,0.88,5.67,2.68c1.34,1.87,2.02,4.72,2.02,8.44v23.48h12.27V55.55
			C85.49,49.44,83.9,44.51,80.75,40.9z"/>
		<path class="st0" d="M157.89,35.49c-12.84,0-23.25,10.41-23.25,23.25v41.07h12.27V79.24C150.18,81,153.92,82,157.89,82
			c12.84,0,23.25-10.41,23.25-23.25S170.73,35.49,157.89,35.49z M157.89,69.72c-2.33,0-4.49-0.73-6.26-1.97l-4.72,11.48v-20.5l0,0v0
			c0-6.06,4.92-10.98,10.98-10.98c6.06,0,10.98,4.92,10.98,10.98S163.95,69.72,157.89,69.72z"/>
		<polygon class="st0" points="101.92,58.75 101.92,17.21 89.65,17.21 101.92,81.32 		"/>
		<polygon class="st0" points="133.42,36.16 101.92,58.75 133.42,81.35 115.47,58.71 		"/>
		<path class="st0" d="M67.87,46.53c-0.95,0-2.03,0.07-2.9,0.21c0.19-0.01,0.37-0.03,0.56-0.03c2.53,0,4.38,0.88,5.67,2.68
			c1.34,1.88,2.02,4.72,2.02,8.44v23.48h12.27V66.69c0-6.11-1.6-11.03-4.75-14.65C77.56,48.39,72.42,46.53,67.87,46.53z"/>
		<polygon class="st0" points="57.5,17.21 45.23,81.35 57.5,81.35 		"/>
		<path class="st0" d="M226.96,71.21c-2.19,2.34-5.11,3.94-8.58,3.94c-4.08,0-7.63-2.23-9.52-5.53c-0.49,0.07-0.99,0.11-1.51,0.11
			c-6.06,0-10.98-4.92-10.98-10.98c0-1.46,0.29-2.85,0.81-4.12c-1.31,2.91-2.05,6.14-2.05,9.54c0,6.94,3.04,13.16,7.86,17.42
			c1.41,0.27,2.87,0.41,4.36,0.41C215.6,82,222.83,77.69,226.96,71.21z"/>
		<path class="st0" d="M197.81,53.31c1.89-3.31,5.45-5.55,9.53-5.55c5.22,0,9.1,3.4,11.39,7.63l8.64-8.44
			c-1.25-2.11-2.82-4.01-4.64-5.63c-1.41-0.27-2.87-0.42-4.36-0.42C209.45,40.91,201.71,45.94,197.81,53.31z"/>
		<path class="st0" d="M146.91,58.74L146.91,58.74L146.91,58.74c0-6.06,4.92-10.98,10.98-10.98c6.06,0,10.98,4.92,10.98,10.98
			c0,2.27-0.69,4.38-1.87,6.13c1.18,1.75,1.87,3.86,1.87,6.13c0,6.06-4.92,10.98-10.98,10.98c0,0-0.01,0-0.01,0c0,0,0.01,0,0.01,0
			c10.72,0,19.73-7.25,22.43-17.12c-2.69-9.86-11.71-17.12-22.43-17.12c-12.84,0-23.25,10.41-23.25,23.25v28.8h12.27V79.24
			C146.91,79.24,146.91,58.74,146.91,58.74z"/>
	</g>
	<path class="st0" d="M166.75,99.49h-13.34c-0.41,0-0.62-0.26-0.66-0.69c0.03-0.43,0.25-0.69,0.66-0.69h6.02v-3.69h-4.66
		c-0.41,0-0.66-0.26-0.69-0.69c0.03-0.43,0.28-0.69,0.69-0.69h4.66v-3.53h-3.82c-0.56,1.07-1.08,1.89-1.57,2.4
		c-0.16,0.16-0.31,0.26-0.51,0.3c-0.18,0.03-0.38,0.03-0.52-0.11c-0.33-0.31-0.33-0.71-0.07-1.08c1.3-1.49,2.05-3.1,2.21-4.77
		c0.08-0.44,0.38-0.64,0.84-0.57c0.44,0.11,0.62,0.44,0.54,0.89c-0.15,0.74-0.28,1.26-0.39,1.59h3.3v-2.38
		c0-0.41,0.3-0.59,0.72-0.62c0.43,0.03,0.72,0.21,0.72,0.62v2.38h5.27c0.38,0,0.57,0.3,0.59,0.71c-0.03,0.41-0.25,0.67-0.62,0.67
		h-5.23v3.56h4.97c0.38,0,0.56,0.28,0.59,0.67c-0.03,0.39-0.21,0.67-0.59,0.67h-4.97v3.69h5.87c0.39,0,0.59,0.26,0.62,0.69
		C167.34,99.23,167.14,99.49,166.75,99.49z"/>
	<path class="st0" d="M186.78,99.52h-11.3c-0.34,0-0.56-0.26-0.56-0.66c0-0.39,0.21-0.66,0.56-0.66h5.02V96.8h-3.58
		c-0.38,0-0.54-0.25-0.57-0.64c0.03-0.39,0.2-0.64,0.57-0.64h3.58v-1.28h-3.07c-0.46,0.59-0.84,1.02-1.15,1.23
		c-0.3,0.21-0.56,0.15-0.8-0.13c-0.18-0.28-0.18-0.59,0.07-0.87c0.59-0.66,1.05-1.48,1.49-2.44c0.16-0.36,0.48-0.46,0.85-0.36
		c0.62,0.26,0.49,0.75,0.25,1.2h2.36v-1.3h-4.58c-0.31,0-0.51,0.05-0.57,0.11c-0.08,0.05-0.1,0.18-0.1,0.48
		c0.02,1.9-0.08,3.33-0.23,4.28c-0.16,1.02-0.44,1.92-0.9,2.72c-0.2,0.34-0.56,0.41-0.94,0.18c-0.34-0.21-0.39-0.61-0.25-0.95
		c0.43-0.97,0.71-1.85,0.82-2.72c0.07-0.46,0.13-1,0.15-1.61c0.02-0.59,0.02-1.35,0-2.26c0-0.56,0.08-1,0.3-1.23
		s0.56-0.31,1.08-0.31h0.8c-0.13-0.08-0.23-0.2-0.28-0.38c-0.03-0.39,0.15-0.67,0.56-0.72c0.95-0.13,1.69-0.25,2.2-0.38
		c-0.25-0.08-1.08-0.34-1.49-0.43c-0.38-0.08-0.61-0.33-0.49-0.67c0.03-0.08,0.08-0.15,0.13-0.2h-2.82c-0.39,0-0.59-0.23-0.62-0.61
		c0.03-0.38,0.23-0.61,0.62-0.61h5.53v-0.34c0-0.41,0.3-0.59,0.74-0.62c0.44,0.03,0.72,0.21,0.72,0.62v0.34h5.64
		c0.38,0,0.56,0.23,0.59,0.61c-0.03,0.38-0.21,0.61-0.59,0.61h-1.98c-0.67,0.48-1.31,0.84-2.15,1.28c0.57,0.21,1,0.31,1.59,0.59
		c0.34,0.16,0.41,0.44,0.23,0.79c-0.03,0.05-0.08,0.08-0.11,0.11h2.46c0.38,0,0.54,0.28,0.57,0.66c-0.03,0.38-0.2,0.66-0.57,0.66
		h-4.64v1.3h4.17c0.43,0,0.67,0.26,0.71,0.69c-0.03,0.43-0.28,0.69-0.71,0.69h-4.17v1.28h3.76c0.39,0,0.59,0.25,0.62,0.64
		c-0.03,0.39-0.23,0.64-0.62,0.64h-3.76v1.41h4.87c0.41,0,0.64,0.26,0.67,0.66C187.42,99.26,187.19,99.52,186.78,99.52z
		 M182.43,90.01c-0.72-0.26-1.51-0.52-1.92-0.64c-1.08,0.34-2.25,0.66-3.53,0.89h6.14C182.91,90.19,182.66,90.09,182.43,90.01z
		 M178.2,87.48c0.71,0.2,1.69,0.48,2.41,0.71c0.67-0.23,1.3-0.49,1.77-0.71H178.2z"/>
	<path class="st0" d="M206.45,96.9c-0.18,1.21-0.57,2-1.2,2.35c-0.44,0.25-1.15,0.39-2.12,0.34c-1.07-0.05-1.9-0.2-2.51-0.51
		c-0.36-0.18-0.56-0.64-0.38-1.02c0.2-0.41,0.54-0.49,0.97-0.36c1.76,0.57,2.74,0.54,3.3,0.07c0.49-0.41,0.82-3.05,0.75-7.92
		c0-0.38-0.25-0.67-0.67-0.67h-4.28c-0.49,4.71-2.38,8.07-5.59,10.35c-0.46,0.33-0.87,0.23-1.21-0.18c-0.3-0.49-0.13-0.85,0.31-1.16
		c2.84-2.07,4.53-4.95,4.87-9.01h-4.74c-0.43,0-0.74-0.25-0.74-0.67c0-0.46,0.25-0.71,0.67-0.71h4.84v-1.72
		c0-0.59,0.26-0.87,0.75-0.87c0.57,0,0.8,0.3,0.8,0.82v1.77h4.74c1.12,0,1.77,0.66,1.77,1.84C206.79,92.9,206.61,95.87,206.45,96.9z
		"/>
	<path class="st0" d="M226.47,99.26c-0.71,0.62-1.64,0.74-2.54,0.74c-0.72,0-1.49-0.07-2.21-0.21c-0.39-0.08-0.72-0.26-0.72-0.71
		c0-0.43,0.39-0.77,0.8-0.77c0.08,0,0.16,0.02,0.25,0.03c0.64,0.13,1.28,0.25,1.94,0.25c0.54,0,1.05-0.07,1.48-0.43
		c0.77-0.67,0.79-2.67,0.79-3.61v-2.2c0-0.21-0.25-0.44-0.46-0.44h-10.15v0.82c0,1.8-0.18,3.87-0.85,5.56
		c-0.1,0.25-0.2,0.54-0.34,0.75c-0.15,0.23-0.41,0.43-0.69,0.43c-0.39,0-0.66-0.28-0.66-0.67c0-0.2,0.07-0.39,0.15-0.57
		c0.75-1.76,1.02-3.58,1.02-5.5v-5.51c0-1.1,0.75-1.46,1.76-1.46h10.01c0.71,0,1.16,0.41,1.16,1.13v1.31c0,0.8-0.3,1.35-1.16,1.35
		h-10.38v1.05h10.56c1.1,0,1.43,0.46,1.43,1.53v2.43C227.61,95.92,227.58,98.29,226.47,99.26z M225.79,87.4
		c0-0.18-0.21-0.26-0.36-0.26h-9.25c-0.25,0-0.56,0.2-0.56,0.48v0.54h9.89c0.13,0,0.28-0.15,0.28-0.28V87.4z M223.2,97.64h-5.09
		c-0.79,0-1.41-0.39-1.41-1.25v-2.28c0-0.8,0.46-1.26,1.26-1.26H223c0.85,0,1.44,0.39,1.44,1.3v2.31
		C224.45,97.28,223.99,97.64,223.2,97.64z M223.12,94.64c0-0.3-0.08-0.48-0.41-0.48h-4.31c-0.23,0-0.34,0.13-0.34,0.36v1.3
		c0,0.3,0.13,0.51,0.44,0.51h4.25c0.3,0,0.38-0.18,0.38-0.44V94.64z"/>
	<g>
		<path class="st0" d="M352.35,62.24h0.81c0.12,0,0.21,0.02,0.25,0.05c0.05,0.03,0.1,0.1,0.15,0.2l1.56,3.18l1.54-3.18
			c0.05-0.1,0.1-0.17,0.15-0.2c0.05-0.03,0.13-0.05,0.25-0.05h0.74c0.18,0,0.27,0.06,0.27,0.17c0,0.05-0.01,0.1-0.03,0.14
			l-2.31,4.46v2.6c0,0.13-0.02,0.21-0.07,0.25c-0.05,0.04-0.14,0.06-0.28,0.06h-0.63c-0.14,0-0.23-0.02-0.28-0.06
			c-0.05-0.04-0.07-0.12-0.07-0.25v-2.6l-2.31-4.46c-0.02-0.04-0.03-0.09-0.03-0.14C352.08,62.3,352.17,62.24,352.35,62.24z"/>
		<path class="st0" d="M363.77,69.1v0.47c0,0.14-0.02,0.23-0.06,0.28c-0.04,0.05-0.12,0.07-0.25,0.07h-4.07
			c-0.14,0-0.23-0.02-0.28-0.06s-0.07-0.12-0.07-0.25v-7.06c0-0.13,0.02-0.21,0.07-0.25s0.14-0.06,0.28-0.06h4.02
			c0.13,0,0.21,0.02,0.25,0.07c0.04,0.05,0.06,0.14,0.06,0.27v0.47c0,0.14-0.02,0.23-0.06,0.27c-0.04,0.05-0.12,0.07-0.25,0.07
			h-3.05v1.99h2.77c0.13,0,0.21,0.02,0.25,0.07c0.04,0.05,0.06,0.14,0.06,0.27v0.47c0,0.14-0.02,0.23-0.06,0.28
			c-0.04,0.05-0.12,0.07-0.25,0.07h-2.77v2.2h3.1c0.13,0,0.21,0.02,0.25,0.07C363.75,68.88,363.77,68.97,363.77,69.1z"/>
		<path class="st0" d="M368.66,62.44l2.4,7.17c0.01,0.06,0.02,0.1,0.02,0.12c0,0.13-0.08,0.19-0.24,0.19h-0.76
			c-0.14,0-0.23-0.02-0.26-0.06c-0.04-0.04-0.08-0.12-0.12-0.25l-0.5-1.52h-2.83l-0.49,1.53c-0.04,0.13-0.09,0.21-0.12,0.25
			c-0.04,0.04-0.13,0.05-0.26,0.05h-0.71c-0.16,0-0.24-0.06-0.24-0.19c0-0.02,0.01-0.06,0.02-0.12l2.43-7.17
			c0.03-0.09,0.07-0.14,0.12-0.16c0.05-0.02,0.13-0.03,0.23-0.03h0.97c0.1,0,0.18,0.01,0.23,0.03
			C368.59,62.3,368.63,62.35,368.66,62.44z M367.78,63.69l-1.05,3.28h2.1L367.78,63.69z"/>
		<path class="st0" d="M374.52,66.92h-1.18v2.69c0,0.12-0.02,0.21-0.06,0.25c-0.04,0.04-0.14,0.06-0.28,0.06h-0.6
			c-0.14,0-0.24-0.02-0.28-0.06c-0.04-0.04-0.06-0.13-0.06-0.25v-7.06c0-0.12,0.02-0.2,0.06-0.25c0.04-0.04,0.14-0.06,0.28-0.06
			h2.31c0.85,0,1.47,0.18,1.87,0.54c0.4,0.36,0.6,0.93,0.6,1.7v0.21c0,1.09-0.44,1.78-1.31,2.07l1.61,2.85
			c0.03,0.06,0.04,0.1,0.04,0.14c0,0.12-0.09,0.17-0.28,0.17h-0.81c-0.12,0-0.2-0.02-0.26-0.06c-0.06-0.04-0.12-0.12-0.19-0.25
			L374.52,66.92z M373.34,63.36v2.44h1.35c0.42,0,0.71-0.09,0.88-0.26c0.17-0.17,0.26-0.46,0.26-0.86v-0.15
			c0-0.42-0.08-0.72-0.25-0.9c-0.17-0.18-0.47-0.26-0.89-0.26H373.34z"/>
		<path class="st0" d="M379.67,68.05c0.06,0.31,0.2,0.54,0.42,0.7c0.22,0.15,0.52,0.23,0.92,0.23c0.45,0,0.78-0.08,0.98-0.25
			c0.2-0.17,0.3-0.43,0.3-0.79c0-0.29-0.08-0.52-0.25-0.71c-0.17-0.18-0.43-0.33-0.8-0.45l-1.14-0.36
			c-0.53-0.17-0.94-0.42-1.22-0.77c-0.28-0.35-0.43-0.76-0.43-1.23v-0.1c0-0.72,0.23-1.28,0.69-1.67c0.46-0.4,1.11-0.59,1.94-0.59
			c0.91,0,1.58,0.24,2.02,0.72c0.3,0.35,0.45,0.76,0.45,1.25c0,0.12-0.02,0.19-0.07,0.23c-0.05,0.04-0.14,0.06-0.27,0.06h-0.62
			c-0.14,0-0.23-0.02-0.27-0.05c-0.04-0.04-0.07-0.11-0.09-0.22c-0.06-0.59-0.49-0.88-1.26-0.88c-0.79,0-1.19,0.36-1.19,1.07
			c0,0.29,0.08,0.51,0.23,0.66c0.15,0.15,0.44,0.3,0.87,0.43l1.14,0.36c0.55,0.17,0.96,0.43,1.22,0.78c0.27,0.36,0.4,0.79,0.4,1.3
			v0.14c0,0.7-0.23,1.24-0.68,1.61c-0.45,0.38-1.09,0.57-1.92,0.57c-0.98,0-1.69-0.23-2.15-0.68c-0.37-0.39-0.56-0.84-0.56-1.35
			c0-0.12,0.02-0.19,0.07-0.23s0.14-0.06,0.28-0.06h0.6c0.13,0,0.22,0.02,0.26,0.05C379.62,67.87,379.65,67.94,379.67,68.05z"/>
	</g>
	<g>
		<path class="st0" d="M255.36,89.58h2.92c0.94,0,1.68,0.19,2.23,0.57c0.55,0.38,0.94,0.84,1.17,1.37c0.1,0.26,0.19,0.55,0.25,0.87
			c0.06,0.32,0.09,0.75,0.09,1.3v2.05c0,0.53-0.03,0.96-0.09,1.27c-0.06,0.32-0.15,0.6-0.25,0.84c-0.22,0.52-0.58,0.98-1.1,1.35
			c-0.51,0.38-1.21,0.57-2.08,0.57h-3.14c-0.18,0-0.3-0.03-0.36-0.08c-0.06-0.05-0.09-0.16-0.09-0.34v-9.36
			c0-0.17,0.03-0.28,0.09-0.34C255.05,89.6,255.18,89.58,255.36,89.58z M256.65,91.12v7.1h1.6c0.43,0,0.79-0.07,1.08-0.22
			c0.29-0.15,0.51-0.4,0.67-0.77c0.15-0.36,0.23-0.86,0.23-1.5v-2.12c0-0.94-0.17-1.58-0.52-1.95c-0.35-0.36-0.83-0.54-1.45-0.54
			H256.65z"/>
		<path class="st0" d="M270.95,98.68v0.63c0,0.18-0.03,0.3-0.08,0.36c-0.05,0.06-0.16,0.09-0.34,0.09h-5.4
			c-0.18,0-0.3-0.03-0.36-0.08c-0.06-0.05-0.09-0.16-0.09-0.34v-9.36c0-0.17,0.03-0.28,0.09-0.34c0.06-0.05,0.18-0.08,0.36-0.08
			h5.34c0.17,0,0.28,0.03,0.34,0.09c0.05,0.06,0.08,0.18,0.08,0.36v0.63c0,0.18-0.03,0.3-0.08,0.36c-0.05,0.06-0.16,0.09-0.34,0.09
			h-4.05v2.63h3.68c0.17,0,0.28,0.03,0.34,0.09c0.05,0.06,0.08,0.18,0.08,0.37v0.63c0,0.18-0.03,0.3-0.08,0.37
			c-0.05,0.06-0.16,0.09-0.34,0.09h-3.68v2.92h4.11c0.17,0,0.28,0.03,0.34,0.09C270.92,98.38,270.95,98.5,270.95,98.68z"/>
		<path class="st0" d="M279.58,98.68v0.63c0,0.18-0.03,0.3-0.08,0.36c-0.05,0.06-0.16,0.09-0.34,0.09h-5.1
			c-0.18,0-0.3-0.03-0.37-0.08c-0.06-0.05-0.09-0.16-0.09-0.34v-9.36c0-0.17,0.03-0.28,0.09-0.34c0.06-0.05,0.18-0.08,0.37-0.08
			h0.83c0.18,0,0.3,0.03,0.37,0.08c0.06,0.05,0.09,0.16,0.09,0.34v8.23h3.81c0.17,0,0.28,0.03,0.34,0.09
			C279.56,98.38,279.58,98.5,279.58,98.68z"/>
		<path class="st0" d="M283.58,89.99v9.36c0,0.17-0.03,0.28-0.09,0.34c-0.06,0.05-0.18,0.08-0.37,0.08h-0.83
			c-0.18,0-0.3-0.03-0.36-0.08c-0.06-0.05-0.09-0.16-0.09-0.34v-9.36c0-0.17,0.03-0.28,0.09-0.34c0.06-0.05,0.18-0.08,0.36-0.08
			h0.83c0.18,0,0.3,0.03,0.37,0.08C283.55,89.71,283.58,89.82,283.58,89.99z"/>
		<path class="st0" d="M288.66,99.51l-2.91-9.52c-0.02-0.08-0.03-0.13-0.03-0.16c0-0.17,0.1-0.26,0.32-0.26h1.03
			c0.18,0,0.3,0.03,0.36,0.08c0.06,0.05,0.11,0.16,0.16,0.34l2.19,7.62l2.19-7.62c0.05-0.17,0.1-0.28,0.16-0.34
			c0.06-0.05,0.18-0.08,0.36-0.08h0.99c0.21,0,0.32,0.09,0.32,0.26c0,0.03-0.01,0.08-0.03,0.16l-2.91,9.52
			c-0.04,0.11-0.09,0.19-0.16,0.21c-0.07,0.03-0.17,0.04-0.3,0.04h-1.27c-0.13,0-0.23-0.01-0.3-0.04
			C288.75,99.7,288.7,99.63,288.66,99.51z"/>
		<path class="st0" d="M302.21,98.68v0.63c0,0.18-0.03,0.3-0.08,0.36c-0.05,0.06-0.16,0.09-0.34,0.09h-5.4
			c-0.18,0-0.3-0.03-0.37-0.08c-0.06-0.05-0.09-0.16-0.09-0.34v-9.36c0-0.17,0.03-0.28,0.09-0.34c0.06-0.05,0.18-0.08,0.37-0.08
			h5.34c0.17,0,0.28,0.03,0.34,0.09c0.05,0.06,0.08,0.18,0.08,0.36v0.63c0,0.18-0.03,0.3-0.08,0.36c-0.05,0.06-0.16,0.09-0.34,0.09
			h-4.05v2.63h3.68c0.17,0,0.28,0.03,0.34,0.09c0.05,0.06,0.08,0.18,0.08,0.37v0.63c0,0.18-0.03,0.3-0.08,0.37
			c-0.05,0.06-0.16,0.09-0.34,0.09h-3.68v2.92h4.11c0.17,0,0.28,0.03,0.34,0.09C302.18,98.38,302.21,98.5,302.21,98.68z"/>
		<path class="st0" d="M308.15,95.79h-1.56v3.57c0,0.16-0.03,0.27-0.09,0.33s-0.18,0.09-0.37,0.09h-0.8c-0.19,0-0.32-0.03-0.37-0.09
			c-0.06-0.06-0.09-0.17-0.09-0.33v-9.36c0-0.16,0.03-0.27,0.09-0.33c0.06-0.06,0.18-0.09,0.37-0.09h3.06
			c1.13,0,1.95,0.24,2.48,0.72c0.53,0.48,0.79,1.23,0.79,2.26v0.27c0,1.45-0.58,2.37-1.73,2.75l2.13,3.78
			c0.04,0.08,0.06,0.14,0.06,0.19c0,0.15-0.12,0.23-0.37,0.23h-1.07c-0.15,0-0.27-0.03-0.34-0.08c-0.08-0.05-0.16-0.16-0.26-0.34
			L308.15,95.79z M306.59,91.07v3.24h1.79c0.55,0,0.95-0.11,1.17-0.34c0.23-0.23,0.34-0.61,0.34-1.15v-0.2
			c0-0.56-0.11-0.96-0.34-1.2c-0.22-0.23-0.62-0.35-1.18-0.35H306.59z"/>
		<path class="st0" d="M316.25,89.99v9.36c0,0.17-0.03,0.28-0.09,0.34c-0.06,0.05-0.18,0.08-0.36,0.08h-0.83
			c-0.18,0-0.3-0.03-0.37-0.08c-0.06-0.05-0.09-0.16-0.09-0.34v-9.36c0-0.17,0.03-0.28,0.09-0.34c0.06-0.05,0.18-0.08,0.37-0.08
			h0.83c0.18,0,0.3,0.03,0.36,0.08C316.22,89.71,316.25,89.82,316.25,89.99z"/>
		<path class="st0" d="M324.3,99.37l-3.42-6.49v6.47c0,0.17-0.03,0.28-0.09,0.34c-0.06,0.05-0.18,0.08-0.37,0.08h-0.79
			c-0.18,0-0.3-0.03-0.37-0.08c-0.06-0.05-0.09-0.16-0.09-0.34v-9.36c0-0.17,0.03-0.28,0.09-0.34c0.06-0.05,0.18-0.08,0.37-0.08
			h0.83c0.18,0,0.31,0.02,0.39,0.06c0.08,0.04,0.17,0.16,0.26,0.34l3.42,6.49v-6.47c0-0.17,0.03-0.28,0.09-0.34
			c0.06-0.05,0.18-0.08,0.37-0.08h0.79c0.18,0,0.3,0.03,0.37,0.08c0.06,0.05,0.09,0.16,0.09,0.34v9.36c0,0.17-0.03,0.28-0.09,0.34
			c-0.06,0.05-0.18,0.08-0.37,0.08h-0.83c-0.18,0-0.31-0.02-0.39-0.06C324.48,99.66,324.39,99.55,324.3,99.37z"/>
		<path class="st0" d="M328.91,95.79V93.7c0-0.98,0.11-1.74,0.33-2.26c0.28-0.69,0.73-1.21,1.35-1.56c0.62-0.35,1.36-0.53,2.2-0.53
			c0.65,0,1.25,0.11,1.79,0.32c0.54,0.21,0.98,0.55,1.3,1c0.32,0.45,0.49,1.03,0.49,1.74c0,0.13-0.03,0.22-0.1,0.27
			c-0.07,0.05-0.19,0.07-0.36,0.07h-0.89c-0.17,0-0.29-0.02-0.35-0.07c-0.06-0.05-0.1-0.14-0.11-0.29
			c-0.04-0.53-0.21-0.92-0.52-1.17c-0.31-0.24-0.76-0.37-1.37-0.37c-0.47,0-0.85,0.08-1.14,0.23c-0.29,0.15-0.5,0.42-0.64,0.8
			c-0.13,0.38-0.2,0.91-0.2,1.58v2.41c0,0.96,0.16,1.64,0.48,2.03c0.32,0.39,0.82,0.59,1.5,0.59c0.63,0,1.11-0.16,1.43-0.49
			c0.32-0.32,0.49-0.88,0.49-1.66v-0.27h-1.1c-0.17,0-0.28-0.03-0.34-0.09c-0.05-0.06-0.08-0.18-0.08-0.36v-0.63
			c0-0.18,0.03-0.3,0.08-0.36c0.05-0.06,0.16-0.09,0.34-0.09h2.42c0.18,0,0.3,0.03,0.37,0.08c0.06,0.05,0.09,0.16,0.09,0.34v1.62
			c0,0.63-0.13,1.21-0.4,1.73c-0.27,0.52-0.68,0.94-1.22,1.25c-0.55,0.31-1.24,0.47-2.08,0.47c-0.93,0-1.66-0.17-2.2-0.52
			s-0.95-0.82-1.22-1.43c-0.12-0.27-0.21-0.57-0.26-0.92C328.93,96.79,328.91,96.34,328.91,95.79z"/>
		<path class="st0" d="M344.92,99.51l-2.91-9.52c-0.02-0.08-0.03-0.13-0.03-0.16c0-0.17,0.1-0.26,0.32-0.26h1.03
			c0.18,0,0.3,0.03,0.36,0.08c0.06,0.05,0.11,0.16,0.16,0.34l2.19,7.62l2.19-7.62c0.05-0.17,0.1-0.28,0.16-0.34
			c0.06-0.05,0.18-0.08,0.36-0.08h0.99c0.21,0,0.32,0.09,0.32,0.26c0,0.03-0.01,0.08-0.03,0.16l-2.91,9.52
			c-0.04,0.11-0.09,0.19-0.16,0.21c-0.07,0.03-0.17,0.04-0.3,0.04h-1.27c-0.13,0-0.23-0.01-0.3-0.04
			C345.01,99.7,344.95,99.63,344.92,99.51z"/>
		<path class="st0" d="M355.84,89.83l3.18,9.52c0.02,0.08,0.03,0.13,0.03,0.16c0,0.17-0.11,0.26-0.32,0.26h-1
			c-0.18,0-0.3-0.03-0.35-0.08c-0.05-0.05-0.11-0.16-0.16-0.34l-0.66-2.02h-3.75l-0.64,2.03c-0.06,0.17-0.11,0.28-0.16,0.33
			c-0.05,0.05-0.17,0.07-0.35,0.07h-0.95c-0.21,0-0.32-0.09-0.32-0.26c0-0.03,0.01-0.08,0.03-0.16l3.22-9.52
			c0.04-0.11,0.09-0.19,0.16-0.21c0.07-0.03,0.17-0.04,0.3-0.04h1.29c0.13,0,0.23,0.01,0.3,0.04
			C355.75,89.65,355.8,89.72,355.84,89.83z M354.67,91.49l-1.39,4.35h2.79L354.67,91.49z"/>
		<path class="st0" d="M367.17,98.68v0.63c0,0.18-0.03,0.3-0.08,0.36c-0.05,0.06-0.16,0.09-0.34,0.09h-5.1
			c-0.18,0-0.3-0.03-0.37-0.08c-0.06-0.05-0.09-0.16-0.09-0.34v-9.36c0-0.17,0.03-0.28,0.09-0.34c0.06-0.05,0.18-0.08,0.37-0.08
			h0.83c0.18,0,0.3,0.03,0.36,0.08c0.06,0.05,0.09,0.16,0.09,0.34v8.23h3.81c0.17,0,0.28,0.03,0.34,0.09
			C367.14,98.38,367.17,98.5,367.17,98.68z"/>
		<path class="st0" d="M376.5,89.99v6.23c0,1.24-0.3,2.18-0.9,2.82c-0.6,0.64-1.48,0.96-2.63,0.96h-0.11
			c-1.15,0-2.03-0.32-2.63-0.96c-0.6-0.64-0.9-1.58-0.9-2.82v-6.23c0-0.16,0.03-0.27,0.09-0.33c0.06-0.06,0.18-0.09,0.37-0.09h0.83
			c0.19,0,0.32,0.03,0.37,0.09c0.06,0.06,0.09,0.17,0.09,0.33v6.21c0,1.47,0.59,2.2,1.76,2.2H373c1.17,0,1.76-0.73,1.76-2.2v-6.21
			c0-0.16,0.03-0.27,0.09-0.33s0.18-0.09,0.37-0.09h0.83c0.19,0,0.32,0.03,0.37,0.09C376.47,89.72,376.5,89.83,376.5,89.99z"/>
		<path class="st0" d="M385.59,98.68v0.63c0,0.18-0.03,0.3-0.08,0.36c-0.05,0.06-0.16,0.09-0.34,0.09h-5.4
			c-0.18,0-0.3-0.03-0.37-0.08c-0.06-0.05-0.09-0.16-0.09-0.34v-9.36c0-0.17,0.03-0.28,0.09-0.34c0.06-0.05,0.18-0.08,0.37-0.08
			h5.34c0.17,0,0.28,0.03,0.34,0.09c0.05,0.06,0.08,0.18,0.08,0.36v0.63c0,0.18-0.03,0.3-0.08,0.36c-0.05,0.06-0.16,0.09-0.34,0.09
			h-4.05v2.63h3.68c0.17,0,0.28,0.03,0.34,0.09c0.05,0.06,0.08,0.18,0.08,0.37v0.63c0,0.18-0.03,0.3-0.08,0.37
			c-0.05,0.06-0.16,0.09-0.34,0.09h-3.68v2.92h4.11c0.17,0,0.28,0.03,0.34,0.09C385.57,98.38,385.59,98.5,385.59,98.68z"/>
		<path class="st0" d="M389.46,97.28c0.09,0.41,0.27,0.72,0.56,0.92c0.29,0.21,0.69,0.31,1.22,0.31c0.6,0,1.04-0.11,1.3-0.33
			c0.27-0.22,0.4-0.57,0.4-1.05c0-0.38-0.11-0.69-0.33-0.94c-0.22-0.24-0.57-0.44-1.06-0.59l-1.52-0.47
			c-0.71-0.22-1.25-0.56-1.62-1.02c-0.38-0.46-0.57-1-0.57-1.63v-0.13c0-0.95,0.31-1.69,0.92-2.22c0.61-0.52,1.47-0.79,2.58-0.79
			c1.2,0,2.09,0.32,2.68,0.96c0.4,0.46,0.6,1.01,0.6,1.66c0,0.15-0.03,0.26-0.09,0.31c-0.06,0.05-0.18,0.08-0.36,0.08h-0.82
			c-0.18,0-0.3-0.02-0.36-0.07c-0.06-0.05-0.1-0.14-0.11-0.29c-0.09-0.78-0.64-1.17-1.68-1.17c-1.05,0-1.57,0.47-1.57,1.42
			c0,0.38,0.1,0.68,0.31,0.88c0.21,0.21,0.59,0.39,1.15,0.57l1.52,0.47c0.73,0.22,1.27,0.57,1.62,1.04
			c0.36,0.47,0.54,1.05,0.54,1.73v0.19c0,0.93-0.3,1.64-0.9,2.14c-0.6,0.5-1.45,0.75-2.55,0.75c-1.3,0-2.25-0.3-2.85-0.9
			c-0.5-0.52-0.74-1.11-0.74-1.79c0-0.15,0.03-0.25,0.09-0.31c0.06-0.05,0.18-0.08,0.37-0.08h0.8c0.17,0,0.29,0.02,0.35,0.07
			C389.39,97.04,389.43,97.14,389.46,97.28z"/>
	</g>
</g>
</svg>
